<svg
  width="24"
  height="24"
  viewBox="0 0 24 24"
  fill="none"
  xmlns="http://www.w3.org/2000/svg"
>
  <path
    d="M15.8208 4.33263C15.7014 3.25478 14.7874 2.4165 13.6777 2.4165H10.3236C9.21387 2.4165 8.29996 3.25478 8.18053 4.33263L6.49023 4.33317C5.29937 4.33317 4.33398 5.29856 4.33398 6.48942V19.4269C4.33398 20.6177 5.29937 21.5832 6.49023 21.5832H11.0419C10.7197 21.1541 10.4678 20.6693 10.3033 20.1457H6.49023C6.09328 20.1457 5.77148 19.8239 5.77148 19.4269V6.48942C5.77148 6.09247 6.09328 5.77067 6.49023 5.77067L8.53055 5.77086C8.91738 6.34864 9.57604 6.729 10.3236 6.729H13.6777C14.4237 6.729 15.0812 6.35018 15.4684 5.77442H17.2737V5.77069L17.5111 5.77067C17.908 5.77067 18.2298 6.09247 18.2298 6.48942V13.9165H19.6673V6.48942C19.6673 5.29856 18.7019 4.33317 17.5111 4.33317L15.8208 4.33263ZM10.3236 3.854H13.6777C14.0747 3.854 14.3965 4.1758 14.3965 4.57275C14.3965 4.96971 14.0747 5.2915 13.6777 5.2915H10.3236C9.92662 5.2915 9.60482 4.96971 9.60482 4.57275C9.60482 4.1758 9.92662 3.854 10.3236 3.854ZM18.709 14.8748C20.826 14.8748 22.5423 16.5911 22.5423 18.7082C22.5423 20.7611 20.9285 22.4371 18.9003 22.5368L18.709 22.5415C18.312 22.5415 17.9902 22.2197 17.9902 21.8228C17.9902 21.4589 18.2607 21.1581 18.6114 21.1105L18.709 21.104C20.0322 21.104 21.1048 20.0313 21.1048 18.7082C21.1048 17.4379 20.1163 16.3986 18.8665 16.3174L18.709 16.3123C18.312 16.3123 17.9902 15.9905 17.9902 15.5936C17.9902 15.2297 18.2607 14.929 18.6114 14.8814L18.709 14.8748ZM14.8757 14.8748C15.2726 14.8748 15.5944 15.1966 15.5944 15.5936C15.5944 15.9575 15.324 16.2582 14.9732 16.3058L14.8757 16.3123C13.5525 16.3123 12.4798 17.385 12.4798 18.7082C12.4798 19.9784 13.4683 21.0178 14.7181 21.0989L14.8757 21.104C15.2726 21.104 15.5944 21.4258 15.5944 21.8228C15.5944 22.1866 15.324 22.4874 14.9732 22.535L14.8757 22.5415C12.7586 22.5415 11.0423 20.8252 11.0423 18.7082C11.0423 16.6552 12.6562 14.9792 14.6844 14.8795L14.8757 14.8748ZM15.1152 17.9894H18.4694C18.8663 17.9894 19.1882 18.3112 19.1882 18.7082C19.1882 19.0721 18.9177 19.3728 18.567 19.4204L18.4694 19.4269H15.1152C14.7183 19.4269 14.3965 19.1051 14.3965 18.7082C14.3965 18.3443 14.6669 18.0436 15.0177 17.9959L15.1152 17.9894Z"
    fill="white"
  />
</svg>