<svg
  width="24"
  height="24"
  viewBox="0 0 24 24"
  fill="none"
  xmlns="http://www.w3.org/2000/svg"
>
  <path
    d="M10.25 2.4165H13.75C14.9079 2.4165 15.8616 3.25478 15.9862 4.33263L17.75 4.33317C18.9926 4.33317 20 5.29856 20 6.48942V13.9165H15C12.2386 13.9165 10 16.0618 10 18.7082C10 19.7869 10.3719 20.7823 10.9996 21.5832H6.25C5.00736 21.5832 4 20.6177 4 19.4269V6.48942C4 5.29856 5.00736 4.33317 6.25 4.33317L8.01379 4.33263C8.13841 3.25478 9.09205 2.4165 10.25 2.4165ZM13.75 3.854H10.25C9.83579 3.854 9.5 4.1758 9.5 4.57275C9.5 4.96971 9.83579 5.2915 10.25 5.2915H13.75C14.1642 5.2915 14.5 4.96971 14.5 4.57275C14.5 4.1758 14.1642 3.854 13.75 3.854ZM23 18.7082C23 16.5911 21.2091 14.8748 19 14.8748L18.8982 14.8814C18.5322 14.929 18.25 15.2297 18.25 15.5936C18.25 15.9905 18.5858 16.3123 19 16.3123L19.1644 16.3174C20.4685 16.3986 21.5 17.4379 21.5 18.7082C21.5 20.0313 20.3807 21.104 19 21.104L18.8982 21.1105C18.5322 21.1581 18.25 21.4589 18.25 21.8228C18.25 22.2197 18.5858 22.5415 19 22.5415L19.1996 22.5368C21.316 22.4371 23 20.7611 23 18.7082ZM15.75 15.5936C15.75 15.1966 15.4142 14.8748 15 14.8748L14.8004 14.8795C12.684 14.9792 11 16.6552 11 18.7082C11 20.8252 12.7909 22.5415 15 22.5415L15.1018 22.535C15.4678 22.4874 15.75 22.1866 15.75 21.8228C15.75 21.4258 15.4142 21.104 15 21.104L14.8356 21.0989C13.5315 21.0178 12.5 19.9784 12.5 18.7082C12.5 17.385 13.6193 16.3123 15 16.3123L15.1018 16.3058C15.4678 16.2582 15.75 15.9575 15.75 15.5936ZM18.75 17.9894H15.25L15.1482 17.9959C14.7822 18.0436 14.5 18.3443 14.5 18.7082C14.5 19.1051 14.8358 19.4269 15.25 19.4269H18.75L18.8518 19.4204C19.2178 19.3728 19.5 19.0721 19.5 18.7082C19.5 18.3112 19.1642 17.9894 18.75 17.9894Z"
    fill="white"
  />
</svg>