<svg width="20" height="20" viewBox="0 0 20 20" fill="none" xmlns="http://www.w3.org/2000/svg">
<path d="M7.21109 2C6.73675 2 6.31988 2.31445 6.18956 2.77054L3.93996 10.6442C3.74605 11.3228 4.25565 11.9984 4.96148 11.9984H6.22876L5.05904 16.6773C4.79514 17.7329 6.09991 18.4551 6.85429 17.6726L9.07264 15.408C9.02358 15.1126 8.99805 14.8093 8.99805 14.5C8.99805 11.4624 11.4605 9 14.498 9C14.7683 9 15.0339 9.01949 15.2937 9.05713L15.5308 8.81506L15.5344 8.81137C16.1752 8.1436 15.7143 7 14.7678 7H12.2041L13.4655 3.40582L13.468 3.39836C13.6974 2.71043 13.1853 2 12.4602 2H7.21109ZM16.9981 18.2416C16.2581 18.7361 15.3881 19 14.498 19C13.3046 19 12.16 18.5259 11.3161 17.682C10.4722 16.8381 9.99805 15.6935 9.99805 14.5C9.99805 13.61 10.262 12.74 10.7564 11.9999C11.2509 11.2599 11.9537 10.6831 12.776 10.3425C13.5982 10.0019 14.503 9.91284 15.376 10.0865C16.2489 10.2601 17.0507 10.6887 17.68 11.318C18.3094 11.9474 18.7379 12.7492 18.9116 13.6221C19.0852 14.495 18.9961 15.3998 18.6555 16.2221C18.3149 17.0443 17.7381 17.7471 16.9981 18.2416ZM14.8516 12.1464C14.7578 12.0527 14.6307 12 14.498 12C14.3654 12 14.2383 12.0527 14.1445 12.1464C14.0507 12.2402 13.998 12.3674 13.998 12.5V14H12.498C12.3654 14 12.2383 14.0527 12.1445 14.1464C12.0507 14.2402 11.998 14.3674 11.998 14.5C11.998 14.6326 12.0507 14.7598 12.1445 14.8536C12.2383 14.9473 12.3654 15 12.498 15H13.998V16.5C13.998 16.6326 14.0507 16.7598 14.1445 16.8536C14.2383 16.9473 14.3654 17 14.498 17C14.6307 17 14.7578 16.9473 14.8516 16.8536C14.9454 16.7598 14.998 16.6326 14.998 16.5V15H16.498C16.6307 15 16.7578 14.9473 16.8516 14.8536C16.9454 14.7598 16.998 14.6326 16.998 14.5C16.998 14.3674 16.9454 14.2402 16.8516 14.1464C16.7578 14.0527 16.6307 14 16.498 14H14.998V12.5C14.998 12.3674 14.9454 12.2402 14.8516 12.1464Z" fill="white"/>
</svg>