<svg width="12" height="12" viewBox="0 0 12 12" fill="none" xmlns="http://www.w3.org/2000/svg">
<path d="M3.04883 0.908203H2.74232C1.53089 0.908203 0.548828 1.89026 0.548828 3.10169V8.71471C0.548828 9.92614 1.53089 10.9082 2.74232 10.9082H8.35534C9.56677 10.9082 10.5488 9.92614 10.5488 8.71471V8.4082" stroke="#50E6FF" stroke-width="1.09674" stroke-linecap="round"/>
<path d="M5.16107 5.52045C4.94692 5.7346 4.94692 6.08181 5.16107 6.29596C5.37522 6.51011 5.72243 6.51011 5.93659 6.29596L5.16107 5.52045ZM11.0972 0.908203C11.0972 0.605345 10.8517 0.359831 10.5488 0.359831L5.61348 0.359831C5.31062 0.359831 5.0651 0.605346 5.0651 0.908203C5.0651 1.21106 5.31062 1.45658 5.61348 1.45658H10.0005V5.84355C10.0005 6.14641 10.246 6.39193 10.5488 6.39193C10.8517 6.39193 11.0972 6.14641 11.0972 5.84355L11.0972 0.908203ZM5.93659 6.29596L10.9366 1.29596L10.1611 0.520445L5.16107 5.52045L5.93659 6.29596Z" fill="#50E6FF"/>
</svg>
