<svg
  width="25"
  height="25"
  viewBox="0 0 25 25"
  fill="none"
  xmlns="http://www.w3.org/2000/svg"
>
  <path
    d="M10.311 3.79565C11.1672 2.24782 13.3924 2.2478 14.2486 3.7956L21.9944 17.797C22.8239 19.2967 21.7394 21.1362 20.0256 21.1362H4.53448C2.8207 21.1362 1.73608 19.2967 2.56563 17.7971L10.311 3.79565ZM13.2786 17.1376C13.2786 16.5861 12.8315 16.1389 12.28 16.1389C11.7283 16.1389 11.2812 16.5861 11.2812 17.1376C11.2812 17.6891 11.7283 18.1363 12.28 18.1363C12.8315 18.1363 13.2786 17.6891 13.2786 17.1376ZM13.0194 9.28436C12.9694 8.91832 12.6554 8.63642 12.2758 8.63672C11.8615 8.63705 11.526 8.97311 11.5264 9.38732L11.53 13.8889L11.5368 13.9907C11.5868 14.3567 11.9009 14.6386 12.2806 14.6383C12.6947 14.638 13.0303 14.3019 13.03 13.8877L13.0264 9.38612L13.0194 9.28436Z"
    fill="#FFF176"
  />
</svg>
