<svg xmlns="http://www.w3.org/2000/svg" width="15" height="15" viewBox="0 0 15 15" fill="none">
<path d="M7.1097 1.94727C10.3315 1.94727 12.943 4.55943 12.943 7.7806C12.943 11.0018 10.3315 13.6139 7.1097 13.6139C3.88795 13.6139 1.27637 11.0018 1.27637 7.7806C1.27637 4.55943 3.88795 1.94727 7.1097 1.94727ZM7.11075 9.53276C6.78904 9.53276 6.52818 9.79357 6.52818 10.1153C6.52818 10.437 6.78904 10.6978 7.11075 10.6978C7.43246 10.6978 7.69333 10.437 7.69333 10.1153C7.69333 9.79357 7.43246 9.53276 7.11075 9.53276ZM7.10947 4.86393C6.81033 4.86404 6.56388 5.08932 6.53028 5.37945L6.52637 5.44748L6.52742 8.36463L6.53138 8.43271C6.56516 8.7228 6.81179 8.94791 7.11098 8.94779C7.41012 8.94767 7.65658 8.72239 7.69018 8.43224L7.69408 8.36422L7.69303 5.44706L7.68907 5.37903C7.65529 5.08892 7.40866 4.86383 7.10947 4.86393Z" fill="#FFF492"/>
</svg>