<svg width="20" height="21" viewBox="0 0 20 21" fill="none" xmlns="http://www.w3.org/2000/svg">
<path d="M6 4.05762C4.89543 4.05762 4 4.95305 4 6.05762V14.0576C4 15.1622 4.89543 16.0576 6 16.0576H14C15.1046 16.0576 16 15.1622 16 14.0576V11.5576C16 11.2815 16.2239 11.0576 16.5 11.0576C16.7761 11.0576 17 11.2815 17 11.5576V14.0576C17 15.7145 15.6569 17.0576 14 17.0576H6C4.34315 17.0576 3 15.7145 3 14.0576V6.05762C3 4.40076 4.34315 3.05762 6 3.05762H8.5C8.77614 3.05762 9 3.28147 9 3.55762C9 3.83376 8.77614 4.05762 8.5 4.05762H6ZM11 3.55762C11 3.28147 11.2239 3.05762 11.5 3.05762H16.5C16.7761 3.05762 17 3.28147 17 3.55762V8.55762C17 8.83376 16.7761 9.05762 16.5 9.05762C16.2239 9.05762 16 8.83376 16 8.55762V4.76472L11.8536 8.91117C11.6583 9.10643 11.3417 9.10643 11.1464 8.91117C10.9512 8.71591 10.9512 8.39933 11.1464 8.20406L15.2929 4.05762H11.5C11.2239 4.05762 11 3.83376 11 3.55762Z" fill="black"/>
</svg>
