<svg width="76" height="17" viewBox="0 0 76 17" fill="none" xmlns="http://www.w3.org/2000/svg">
<path fill-rule="evenodd" clip-rule="evenodd" d="M72.4637 7.47069H70.0273V13.201H68.3713V7.47069H67.2085V6.10365H68.3713V5.11636C68.3713 4.37062 68.6087 3.75963 69.0844 3.28341C69.5596 2.80672 70.1691 2.5686 70.9127 2.5686C71.1111 2.5686 71.2868 2.57892 71.44 2.59977C71.5933 2.62063 71.7286 2.65157 71.8457 2.69282V4.13594C71.7914 4.10386 71.6969 4.06467 71.5616 4.0186C71.4265 3.97254 71.271 3.94962 71.0953 3.94962C70.7527 3.94962 70.4893 4.05871 70.3044 4.27734C70.1195 4.49621 70.0273 4.81958 70.0273 5.24745V6.10365H72.4637V4.50858L74.1062 3.99798V6.10365H75.7626V7.47069H74.1062V10.7912C74.1062 11.2287 74.184 11.5372 74.3395 11.7164C74.495 11.8961 74.7394 11.9857 75.0728 11.9857C75.1675 11.9857 75.2813 11.963 75.4144 11.9167C75.5472 11.8709 75.6632 11.8156 75.7626 11.7512V13.1318C75.6587 13.1919 75.4864 13.2469 75.2452 13.2977C75.0042 13.3482 74.7666 13.3736 74.5321 13.3736C73.8425 13.3736 73.3255 13.1861 72.9809 12.811C72.636 12.4358 72.4637 11.8709 72.4637 11.1157V7.47069ZM61.5995 9.69982C61.5995 10.441 61.764 11.007 62.093 11.3985C62.4217 11.7897 62.8927 11.9849 63.5057 11.9849C64.1006 11.9849 64.5536 11.7897 64.8644 11.3985C65.1754 11.007 65.3309 10.427 65.3309 9.65834C65.3309 8.89449 65.1698 8.31788 64.8476 7.92897C64.5253 7.54006 64.0734 7.34572 63.4923 7.34572C62.8927 7.34572 62.4275 7.54923 62.0963 7.9567C61.7649 8.36372 61.5995 8.94514 61.5995 9.69982ZM59.8975 9.75461C59.8975 8.58099 60.2219 7.65122 60.8709 6.9653C61.5198 6.2796 62.4211 5.93675 63.5747 5.93675C64.6608 5.93675 65.5092 6.267 66.12 6.92748C66.7305 7.5882 67.0357 8.4797 67.0357 9.60289C67.0357 10.7536 66.7112 11.6694 66.0625 12.3505C65.4134 13.0318 64.5302 13.3724 63.4125 13.3724C62.3354 13.3724 61.4803 13.0492 60.8473 12.4023C60.2141 11.7558 59.8975 10.8732 59.8975 9.75461ZM56.2128 7.96752C56.2128 8.20678 56.2873 8.39425 56.4361 8.53015C56.5846 8.66582 56.9136 8.83725 57.4229 9.04442C58.0764 9.31142 58.535 9.61187 58.7984 9.94555C59.0621 10.2792 59.194 10.683 59.194 11.1572C59.194 11.8246 58.9427 12.3608 58.4403 12.7656C57.9377 13.171 57.2585 13.3733 56.4022 13.3733C56.1139 13.3733 55.7948 13.3378 55.4456 13.2663C55.0963 13.195 54.8001 13.1041 54.5566 12.9936V11.3506C54.8542 11.5622 55.1741 11.7301 55.5165 11.8544C55.8592 11.9788 56.17 12.0409 56.4496 12.0409C56.8189 12.0409 57.0917 11.988 57.2674 11.8821C57.4431 11.7762 57.5311 11.5991 57.5311 11.3506C57.5311 11.1203 57.4398 10.9257 57.2573 10.7671C57.0749 10.6081 56.7289 10.4252 56.2196 10.218C55.6157 9.96044 55.1878 9.67054 54.9354 9.34831C54.6829 9.02609 54.5566 8.61655 54.5566 8.11924C54.5566 7.47961 54.8057 6.95365 55.3036 6.54159C55.8015 6.12976 56.4473 5.92396 57.2405 5.92396C57.4838 5.92396 57.7564 5.95146 58.0584 6.00646C58.3602 6.06192 58.6126 6.13342 58.8155 6.22074V7.8087C58.5992 7.66134 58.3467 7.53484 58.0584 7.42873C57.7698 7.32285 57.4838 7.27014 57.1999 7.27014C56.8889 7.27014 56.6466 7.33225 56.4731 7.45646C56.2997 7.58067 56.2128 7.75118 56.2128 7.96752ZM48.3457 9.69982C48.3457 10.441 48.5099 11.007 48.8391 11.3985C49.168 11.7897 49.639 11.9849 50.2518 11.9849C50.8469 11.9849 51.2997 11.7897 51.6105 11.3985C51.9215 11.007 52.077 10.427 52.077 9.65834C52.077 8.89449 51.9159 8.31788 51.5937 7.92897C51.2714 7.54006 50.8195 7.34572 50.2384 7.34572C49.639 7.34572 49.1736 7.54923 48.8425 7.9567C48.511 8.36372 48.3457 8.94514 48.3457 9.69982ZM46.6419 9.75461C46.6419 8.58099 46.9664 7.65122 47.6153 6.9653C48.2642 6.2796 49.1656 5.93675 50.3192 5.93675C51.4054 5.93675 52.2536 6.267 52.8644 6.92748C53.475 7.5882 53.7804 8.4797 53.7804 9.60289C53.7804 10.7536 53.4557 11.6694 52.807 12.3505C52.158 13.0318 51.2746 13.3724 50.1569 13.3724C49.0799 13.3724 48.2247 13.0492 47.5918 12.4023C46.9585 11.7558 46.6419 10.8732 46.6419 9.75461ZM45.9385 5.98557C46.0691 5.98557 46.1865 5.99496 46.2899 6.01353C46.3936 6.03186 46.4815 6.05455 46.5538 6.08228V7.77383C46.4681 7.70943 46.3429 7.64847 46.1786 7.59095C46.0139 7.5332 45.8144 7.50455 45.5804 7.50455C45.1792 7.50455 44.8401 7.67712 44.563 8.02226C44.2859 8.36763 44.1472 8.89909 44.1472 9.6171V13.2005H42.5112V6.10313H44.1472V7.22152H44.1742C44.3229 6.8349 44.5482 6.53238 44.8502 6.31352C45.152 6.09511 45.5149 5.98557 45.9385 5.98557ZM39.6654 11.9854C39.9087 11.9854 40.1768 11.9282 40.4696 11.8131C40.7627 11.6978 41.0331 11.5461 41.281 11.3573V12.9106C41.0196 13.0626 40.7232 13.1776 40.392 13.2558C40.061 13.3342 39.6969 13.3733 39.3004 13.3733C38.2772 13.3733 37.4458 13.0431 36.8061 12.3826C36.1659 11.7221 35.8461 10.8788 35.8461 9.8525C35.8461 8.71074 36.1728 7.77089 36.8263 7.0318C37.4797 6.29316 38.4057 5.92396 39.6046 5.92396C39.9111 5.92396 40.2208 5.96429 40.534 6.04473C40.8473 6.12517 41.0961 6.21822 41.281 6.3241V7.92604C41.0286 7.7372 40.7705 7.59122 40.5069 7.4874C40.2435 7.38404 39.974 7.33225 39.6991 7.33225C39.0547 7.33225 38.5343 7.5463 38.1376 7.9744C37.7411 8.40227 37.5427 8.98003 37.5427 9.7072C37.5427 10.4252 37.733 10.9846 38.114 11.385C38.4948 11.7854 39.012 11.9854 39.6654 11.9854ZM33.069 13.2H34.7048V6.10263H33.069V13.2ZM32.8988 4.05208C32.8988 3.77593 32.9969 3.54446 33.193 3.35814C33.3889 3.17159 33.622 3.07854 33.8924 3.07854C34.1808 3.07854 34.42 3.17411 34.6091 3.36501C34.7985 3.55592 34.893 3.78509 34.893 4.05208C34.893 4.32343 34.796 4.55146 34.6024 4.73526C34.4085 4.91952 34.172 5.01142 33.8924 5.01142C33.6131 5.01142 33.3777 4.91837 33.1863 4.73205C32.9944 4.5455 32.8988 4.31884 32.8988 4.05208ZM31.4912 3.30034V13.2008H29.8081V5.44062H29.781L26.7728 13.2008H25.6576L22.575 5.44062H22.5548V13.2008H21V3.30034H23.4133L26.1984 10.6393H26.2388L29.1794 3.30034H31.4912Z" fill="white"/>
<path fill-rule="evenodd" clip-rule="evenodd" d="M0 7.84512H7.67832V0.00292969H0V7.84512Z" fill="#F25022"/>
<path fill-rule="evenodd" clip-rule="evenodd" d="M8.47656 7.84219H16.1549V0H8.47656V7.84219Z" fill="#7FBA00"/>
<path fill-rule="evenodd" clip-rule="evenodd" d="M0 16.4997H7.67832V8.65747H0V16.4997Z" fill="#00A4EF"/>
<path fill-rule="evenodd" clip-rule="evenodd" d="M8.47656 16.4997H16.1549V8.65747H8.47656V16.4997Z" fill="#FFB900"/>
</svg>
