<svg width="76" height="17" viewBox="0 0 76 17" fill="none" xmlns="http://www.w3.org/2000/svg">
<path fill-rule="evenodd" clip-rule="evenodd" d="M72.4641 7.47045H70.0277V13.2008H68.3717V7.47045H67.2089V6.10341H68.3717V5.11611C68.3717 4.37037 68.6091 3.75939 69.0848 3.28316C69.5601 2.80647 70.1695 2.56836 70.9131 2.56836C71.1115 2.56836 71.2872 2.57867 71.4404 2.59953C71.5937 2.62038 71.729 2.65132 71.8461 2.69257V4.1357C71.7918 4.10361 71.6973 4.06442 71.562 4.01836C71.427 3.97229 71.2715 3.94938 71.0958 3.94938C70.7531 3.94938 70.4897 4.05847 70.3048 4.2771C70.1199 4.49596 70.0277 4.81933 70.0277 5.2472V6.10341H72.4641V4.50834L74.1066 3.99773V6.10341H75.763V7.47045H74.1066V10.791C74.1066 11.2285 74.1845 11.537 74.34 11.7162C74.4955 11.8958 74.7398 11.9855 75.0733 11.9855C75.168 11.9855 75.2817 11.9628 75.4148 11.9165C75.5476 11.8706 75.6636 11.8154 75.763 11.751V13.1316C75.6591 13.1916 75.4868 13.2466 75.2456 13.2975C75.0046 13.3479 74.767 13.3733 74.5325 13.3733C73.8429 13.3733 73.326 13.1859 72.9813 12.8107C72.6364 12.4356 72.4641 11.8706 72.4641 11.1155V7.47045ZM61.5995 9.69962C61.5995 10.4408 61.764 11.0068 62.093 11.3983C62.4217 11.7895 62.8927 11.9847 63.5057 11.9847C64.1006 11.9847 64.5536 11.7895 64.8644 11.3983C65.1754 11.0068 65.3309 10.4268 65.3309 9.65814C65.3309 8.89429 65.1698 8.31768 64.8476 7.92877C64.5253 7.53986 64.0734 7.34552 63.4923 7.34552C62.8927 7.34552 62.4275 7.54903 62.0963 7.9565C61.7649 8.36352 61.5995 8.94494 61.5995 9.69962ZM59.8984 9.75438C59.8984 8.58076 60.2228 7.65099 60.8718 6.96507C61.5207 6.27937 62.4221 5.93652 63.5756 5.93652C64.6617 5.93652 65.5101 6.26677 66.1209 6.92725C66.7314 7.58797 67.0366 8.47947 67.0366 9.60266C67.0366 10.7534 66.7121 11.6691 66.0634 12.3503C65.4143 13.0316 64.5311 13.3722 63.4134 13.3722C62.3363 13.3722 61.4812 13.049 60.8482 12.4021C60.215 11.7555 59.8984 10.873 59.8984 9.75438ZM56.2128 7.96732C56.2128 8.20658 56.2873 8.39405 56.4361 8.52995C56.5846 8.66562 56.9136 8.83705 57.4229 9.04422C58.0764 9.31121 58.535 9.61166 58.7984 9.94535C59.0621 10.279 59.194 10.6828 59.194 11.157C59.194 11.8244 58.9427 12.3606 58.4403 12.7654C57.9377 13.1708 57.2585 13.3731 56.4022 13.3731C56.1139 13.3731 55.7948 13.3376 55.4456 13.2661C55.0963 13.1948 54.8001 13.1039 54.5566 12.9934V11.3504C54.8542 11.562 55.1741 11.7299 55.5165 11.8542C55.8592 11.9786 56.17 12.0407 56.4496 12.0407C56.8189 12.0407 57.0917 11.9878 57.2674 11.8819C57.4431 11.776 57.5311 11.5989 57.5311 11.3504C57.5311 11.1201 57.4398 10.9255 57.2573 10.7669C57.0749 10.6079 56.7289 10.425 56.2196 10.2178C55.6157 9.96024 55.1878 9.67033 54.9354 9.34811C54.6829 9.02589 54.5566 8.61635 54.5566 8.11904C54.5566 7.47941 54.8057 6.95345 55.3036 6.54139C55.8015 6.12956 56.4473 5.92376 57.2405 5.92376C57.4838 5.92376 57.7564 5.95126 58.0584 6.00626C58.3602 6.06172 58.6126 6.13322 58.8155 6.22054V7.8085C58.5992 7.66114 58.3467 7.53464 58.0584 7.42853C57.7698 7.32265 57.4838 7.26994 57.1999 7.26994C56.8889 7.26994 56.6466 7.33205 56.4731 7.45626C56.2997 7.58047 56.2128 7.75098 56.2128 7.96732ZM48.3457 9.69962C48.3457 10.4408 48.5099 11.0068 48.8391 11.3983C49.168 11.7895 49.639 11.9847 50.2518 11.9847C50.8469 11.9847 51.2997 11.7895 51.6105 11.3983C51.9215 11.0068 52.077 10.4268 52.077 9.65814C52.077 8.89429 51.9159 8.31768 51.5937 7.92877C51.2714 7.53986 50.8195 7.34552 50.2384 7.34552C49.639 7.34552 49.1736 7.54903 48.8425 7.9565C48.511 8.36352 48.3457 8.94494 48.3457 9.69962ZM46.6425 9.75438C46.6425 8.58076 46.967 7.65099 47.6159 6.96507C48.2648 6.27937 49.1662 5.93652 50.3198 5.93652C51.406 5.93652 52.2542 6.26677 52.865 6.92725C53.4756 7.58797 53.781 8.47947 53.781 9.60266C53.781 10.7534 53.4563 11.6691 52.8076 12.3503C52.1586 13.0316 51.2752 13.3722 50.1576 13.3722C49.0805 13.3722 48.2254 13.049 47.5924 12.4021C46.9591 11.7555 46.6425 10.873 46.6425 9.75438ZM45.939 5.98535C46.0696 5.98535 46.1869 5.99475 46.2903 6.01331C46.394 6.03165 46.482 6.05433 46.5542 6.08206V7.77362C46.4685 7.70922 46.3433 7.64826 46.1791 7.59073C46.0144 7.53298 45.8149 7.50433 45.5808 7.50433C45.1796 7.50433 44.8406 7.6769 44.5635 8.02204C44.2863 8.36741 44.1477 8.89887 44.1477 9.61688V13.2003H42.5117V6.10292H44.1477V7.2213H44.1746C44.3234 6.83468 44.5487 6.53217 44.8507 6.3133C45.1525 6.0949 45.5153 5.98535 45.939 5.98535ZM39.6649 11.9852C39.9082 11.9852 40.1763 11.9279 40.4692 11.8129C40.7622 11.6976 41.0326 11.5459 41.2805 11.357V12.9104C41.0191 13.0623 40.7227 13.1774 40.3915 13.2555C40.0605 13.3339 39.6964 13.3731 39.2999 13.3731C38.2767 13.3731 37.4453 13.0428 36.8056 12.3824C36.1654 11.7219 35.8456 10.8785 35.8456 9.85225C35.8456 8.71049 36.1724 7.77064 36.8258 7.03155C37.4792 6.29291 38.4052 5.92371 39.6041 5.92371C39.9107 5.92371 40.2203 5.96404 40.5336 6.04448C40.8468 6.12492 41.0956 6.21797 41.2805 6.32385V7.92579C41.0281 7.73695 40.7701 7.59097 40.5064 7.48715C40.243 7.38379 39.9735 7.332 39.6986 7.332C39.0542 7.332 38.5338 7.54605 38.1371 7.97415C37.7406 8.40202 37.5422 8.97977 37.5422 9.70695C37.5422 10.425 37.7325 10.9844 38.1135 11.3848C38.4943 11.7851 39.0115 11.9852 39.6649 11.9852ZM33.0683 13.1998H34.7041V6.10242H33.0683V13.1998ZM32.8984 4.05167C32.8984 3.77551 32.9965 3.54404 33.1926 3.35772C33.3885 3.17117 33.6216 3.07812 33.892 3.07812C34.1804 3.07812 34.4196 3.17369 34.6087 3.3646C34.7981 3.5555 34.8926 3.78468 34.8926 4.05167C34.8926 4.32301 34.7956 4.55104 34.602 4.73484C34.4081 4.9191 34.1716 5.011 33.892 5.011C33.6127 5.011 33.3773 4.91795 33.1859 4.73163C32.994 4.54508 32.8984 4.31843 32.8984 4.05167ZM31.4912 3.30014V13.2006H29.8081V5.44041H29.781L26.7728 13.2006H25.6576L22.575 5.44041H22.5548V13.2006H21V3.30014H23.4133L26.1984 10.6391H26.2388L29.1794 3.30014H31.4912Z" fill="#242424"/>
<path fill-rule="evenodd" clip-rule="evenodd" d="M0 7.84512H7.67832V0.00292969H0V7.84512Z" fill="#F25022"/>
<path fill-rule="evenodd" clip-rule="evenodd" d="M8.47656 7.84219H16.1549V0H8.47656V7.84219Z" fill="#7FBA00"/>
<path fill-rule="evenodd" clip-rule="evenodd" d="M0 16.4997H7.67832V8.65747H0V16.4997Z" fill="#00A4EF"/>
<path fill-rule="evenodd" clip-rule="evenodd" d="M8.47656 16.4999H16.1549V8.65771H8.47656V16.4999Z" fill="#FFB900"/>
</svg>
