<svg
  class="frame"
  width="24"
  height="25"
  viewBox="0 0 24 25"
  fill="none"
  xmlns="http://www.w3.org/2000/svg"
>
  <path
    d="M12.0006 2.98633C17.5243 2.98633 22.0021 7.46417 22.0021 12.9879C22.0021 18.5116 17.5243 22.9894 12.0006 22.9894C6.47686 22.9894 1.99902 18.5116 1.99902 12.9879C1.99902 7.46417 6.47686 2.98633 12.0006 2.98633ZM11.9968 11.2369C11.4839 11.2373 11.0615 11.6236 11.0041 12.121L10.9974 12.2376L11.001 17.7392L11.0078 17.8558C11.0659 18.3531 11.4889 18.7389 12.0017 18.7385C12.5145 18.7382 12.9369 18.3519 12.9944 17.8545L13.001 17.7379L12.9974 12.2363L12.9906 12.1197C12.9325 11.6224 12.5096 11.2366 11.9968 11.2369ZM12.001 7.48736C11.3098 7.48736 10.7495 8.04768 10.7495 8.73888C10.7495 9.43008 11.3098 9.9904 12.001 9.9904C12.6922 9.9904 13.2526 9.43008 13.2526 8.73888C13.2526 8.04768 12.6922 7.48736 12.001 7.48736Z"
    fill="#B3CDFF"
  />
</svg>
