<svg width="115px" height="142px" viewBox="0 0 115 142" fill="none" xmlns="http://www.w3.org/2000/svg" transform="rotate(0) scale(1, 1)">
<g filter="url(#filter0_f_14347_194227)">
<path d="M54.2923 79.2888H30.8926L39.8542 30H63.2539L54.2923 79.2888Z" fill="url(#paint0_linear_14347_194227)"/>
<path d="M48.3179 111.152L58.7731 54.3955H84.1644L48.3179 111.152Z" fill="url(#paint1_linear_14347_194227)"/>
</g>
<g filter="url(#filter1_f_14347_194227)">
<path d="M54.2923 79.2888H30.8926L39.8542 30H63.2539L54.2923 79.2888Z" fill="url(#paint2_linear_14347_194227)"/>
<path d="M48.3179 111.152L58.7731 54.3955H84.1644L48.3179 111.152Z" fill="url(#paint3_linear_14347_194227)"/>
</g>
<path d="M54.2943 79.2888H30.8945L39.8561 30H63.2559L54.2943 79.2888Z" fill="url(#paint4_linear_14347_194227)"/>
<path d="M48.3203 111.151L58.7755 54.3945H84.1667L48.3203 111.151Z" fill="url(#paint5_linear_14347_194227)"/>
<defs>
<filter id="filter0_f_14347_194227" x="0.892578" y="0" width="113.271" height="141.152" filterUnits="userSpaceOnUse" color-interpolation-filters="sRGB">
<feFlood flood-opacity="0" result="BackgroundImageFix"/>
<feBlend mode="normal" in="SourceGraphic" in2="BackgroundImageFix" result="shape"/>
<feGaussianBlur stdDeviation="15" result="effect1_foregroundBlur_14347_194227"/>
</filter>
<filter id="filter1_f_14347_194227" x="20.8926" y="20" width="73.2715" height="101.152" filterUnits="userSpaceOnUse" color-interpolation-filters="sRGB">
<feFlood flood-opacity="0" result="BackgroundImageFix"/>
<feBlend mode="normal" in="SourceGraphic" in2="BackgroundImageFix" result="shape"/>
<feGaussianBlur stdDeviation="5" result="effect1_foregroundBlur_14347_194227"/>
</filter>
<linearGradient id="paint0_linear_14347_194227" x1="48.9892" y1="111.152" x2="57.5283" y2="30" gradientUnits="userSpaceOnUse">
<stop stop-color="#0078d4" data-originalstopcolor="#0078d4"/>
<stop offset="1" stop-color="#117865" data-originalstopcolor="#117865"/>
</linearGradient>
<linearGradient id="paint1_linear_14347_194227" x1="48.9892" y1="111.152" x2="57.5283" y2="30" gradientUnits="userSpaceOnUse">
<stop stop-color="#0078d4" data-originalstopcolor="#0078d4"/>
<stop offset="1" stop-color="#117865" data-originalstopcolor="#117865"/>
</linearGradient>
<linearGradient id="paint2_linear_14347_194227" x1="48.9892" y1="111.152" x2="57.5283" y2="30" gradientUnits="userSpaceOnUse">
<stop stop-color="#0078d4" data-originalstopcolor="#0078d4"/>
<stop offset="1" stop-color="#117865" data-originalstopcolor="#117865"/>
</linearGradient>
<linearGradient id="paint3_linear_14347_194227" x1="48.9892" y1="111.152" x2="57.5283" y2="30" gradientUnits="userSpaceOnUse">
<stop stop-color="#0078d4" data-originalstopcolor="#0078d4"/>
<stop offset="1" stop-color="#117865" data-originalstopcolor="#117865"/>
</linearGradient>
<linearGradient id="paint4_linear_14347_194227" x1="47.0752" y1="30" x2="47.0752" y2="79.2888" gradientUnits="userSpaceOnUse">
<stop stop-color="#333333" data-originalstopcolor="#333333"/>
<stop offset="1"/>
</linearGradient>
<linearGradient id="paint5_linear_14347_194227" x1="66.2435" y1="54.3945" x2="66.2435" y2="111.151" gradientUnits="userSpaceOnUse">
<stop stop-color="#474747" data-originalstopcolor="#474747"/>
<stop offset="0.510417"/>
</linearGradient>
</defs>
</svg>