<svg width="15" height="15" viewBox="0 0 15 15" fill="none" xmlns="http://www.w3.org/2000/svg">
<path d="M12.5186 10.626C10.7924 13.6158 6.96938 14.6402 3.97957 12.914C3.16537 12.4439 2.47994 11.808 1.95789 11.0499C1.78335 10.7964 1.89626 10.4464 2.186 10.3427C4.54064 9.49993 5.80177 8.52337 6.53357 7.12643C7.304 5.6558 7.50307 4.04488 6.96413 1.83676C6.88963 1.53142 7.13076 1.2407 7.44463 1.25753C8.41776 1.30974 9.36844 1.58926 10.2305 2.08701C13.2203 3.81317 14.2447 7.63618 12.5186 10.626ZM7.36401 7.56143C6.58194 9.05431 5.29436 10.1234 3.10309 10.9982C3.48326 11.4332 3.93541 11.806 4.44832 12.1021C6.98969 13.5694 10.2394 12.6986 11.7066 10.1572C13.1739 7.61587 12.3032 4.36619 9.76175 2.89891C9.21363 2.58243 8.62438 2.36992 8.01669 2.2642C8.42113 4.3792 8.16025 6.04151 7.36401 7.56143Z" fill="#E6E6E6"/>
</svg>
